#!OML:ASF F:\VICON\USERDATA\INSTALL\SteveWalk\SteveWalk.ASF
:FULLY-SPECIFIED
:DEGREES
1
root -0.488549 16.4193 -45.0577 18.1425 -0.289334 0.359042
lowerback -15.4169 0.630062 0.485182
upperback -4.24821 0.684319 1.44519
thorax 4.11969 0.341931 1.37251
lowerneck -6.40445 -1.25898 1.0124
upperneck 9.73369 -1.29249 -4.85753
head 4.3321 -0.839612 -1.90138
rclavicle -3.10601e-015 -2.38542e-015
rhumerus -22.6953 -2.0252 -84.1797
rradius 38.362
rwrist -8.15327
rhand -15.3088 -36.8425
rfingers 7.12502
rthumb 10.867 -66.5413
lclavicle -3.10601e-015 -2.38542e-015
lhumerus -45.1699 20.7057 71.0841
lradius 15.3932
lwrist -31.6709
lhand -7.6969 -15.835
lfingers 7.12502
lthumb 18.2005 13.3335
rfemur -23.0157 -7.89997 25.1589
rtibia 32.4658
rfoot -28.5607 8.23432
rtoes -0.950331
lfemur -49.7927 3.74033 -22.8878
ltibia 48.5885
lfoot -9.54342 8.07021
ltoes -7.28167
2
root -0.482834 16.4196 -44.8452 18.2005 -0.772568 0.0832847
lowerback -15.4289 0.767836 0.788611
upperback -4.93951 0.827933 1.48298
thorax 3.39773 0.415714 1.25923
lowerneck -3.47806 -1.19467 0.771511
upperneck 8.94581 -1.23895 -4.72833
head 3.47599 -0.775554 -1.7445
rclavicle 9.3553e-015 1.19271e-014
rhumerus -23.7612 -0.179244 -84.442
rradius 40.2321
rwrist -9.87744
rhand -15.3822 -38.3978
rfingers 7.12502
rthumb 10.7961 -68.1003
lclavicle 9.3553e-015 1.19271e-014
lhumerus -47.4888 18.5356 71.5851
lradius 16.0493
lwrist -29.6248
lhand -7.77106 -15.8475
lfingers 7.12502
lthumb 18.1291 13.3276
rfemur -21.781 -8.46995 25.3325
rtibia 31.4955
rfoot -28.8148 8.71442
rtoes -2.56626
lfemur -49.9955 3.86747 -22.6295
ltibia 45.3317
lfoot -9.49985 8.51258
ltoes -8.69606
3
root -0.476173 16.419 -44.6328 18.152 -1.24578 -0.051262
lowerback -15.8336 0.786524 0.822592
upperback -4.44621 0.823486 1.61264
thorax 4.13363 0.411553 1.38875
lowerneck -4.02959 -0.996497 0.493918
upperneck 8.65739 -0.965306 -4.66015
head 3.49155 -0.64936 -1.6642
rclavicle -5.51627e-015 -3.18055e-015
rhumerus -22.3448 1.36931 -84.5289
rradius 41.6587
rwrist -11.2284
rhand -15.1902 -38.1607
rfingers 7.12502
rthumb 10.9813 -67.8535
lclavicle -5.51627e-015 -3.18055e-015
lhumerus -46.8937 20.6414 70.6208
lradius 14.9362
lwrist -31.7388
lhand -8.10116 -16.1961
lfingers 7.12502
lthumb 17.8115 13.0082
rfemur -20.4456 -8.81108 25.2405
rtibia 30.6651
rfoot -29.013 9.35421
rtoes -2.82165
lfemur -49.96 3.97021 -22.5023
ltibia 41.9648
lfoot -9.72783 8.73384
ltoes -7.75699
4
root -0.46966 16.4052 -44.42 18.0652 -1.7852 -0.144543
lowerback -16.1075 1.25797 0.693589
upperback -4.95839 1.47903 1.40463
thorax 3.72904 0.736706 1.36534
lowerneck -0.677625 -1.41933 1.174
upperneck 7.53759 -1.6006 -5.01008
head 2.45702 -0.903249 -1.84816
rclavicle 1.20762e-014 5.56597e-015
rhumerus -23.3985 1.41177 -84.3451
rradius 43.1574
rwrist -11.8786
rhand -14.9643 -37.462
rfingers 7.12502
rthumb 11.1991 -67.1431
lclavicle 1.20762e-014 5.56597e-015
lhumerus -49.2112 17.0612 71.8134
lradius 16.1604
lwrist -29.4664
lhand -8.47911 -16.7006
lfingers 7.12502
lthumb 17.4478 12.5364
rfemur -19.0239 -8.9142 25.0297
rtibia 29.8062
rfoot -29.0702 10.1414
rtoes -1.29465
lfemur -49.7555 4.12633 -22.4181
ltibia 38.4704
lfoot -9.75204 8.94344
ltoes -6.56231
5
root -0.462029 16.387 -44.2061 18.128 -2.23675 -0.249762
lowerback -16.0931 1.33743 0.596469
upperback -4.5937 1.5905 1.46352
thorax 4.1006 0.789675 1.50991
lowerneck -2.23775 -1.23901 1.10632
upperneck 7.84487 -1.34425 -4.97235
head 2.85799 -0.798982 -1.84811
rclavicle -1.99033e-014 -1.51076e-014
rhumerus -21.7326 2.40365 -84.2222
rradius 43.9327
rwrist -12.3382
rhand -14.7346 -35.8716
rfingers 7.12502
rthumb 11.4207 -65.5405
lclavicle -1.99033e-014 -1.51076e-014
lhumerus -49.1634 16.6111 72.4557
lradius 16.4578
lwrist -28.4925
lhand -8.56656 -16.8657
lfingers 7.12502
lthumb 17.3636 12.3787
rfemur -17.8215 -9.21106 24.8628
rtibia 29.0211
rfoot -29.119 11.3536
rtoes 1.153
lfemur -49.6577 4.27234 -22.3221
ltibia 34.8826
lfoot -9.61937 9.08095
ltoes -6.2697
6
root -0.451289 16.3634 -43.9829 18.0874 -2.85974 -0.541566
lowerback -16.8286 1.46238 0.872471
upperback -3.75252 1.6778 1.51906
thorax 5.39217 0.827216 1.46945
lowerneck -3.72882 -0.959356 0.818912
upperneck 7.77547 -0.97297 -4.65895
head 3.12863 -0.6289 -1.70205
rclavicle -6.01324e-015 -1.98785e-014
rhumerus -19.5533 3.51216 -84.1392
rradius 44.8012
rwrist -12.6307
rhand -14.6752 -34.6774
rfingers 7.12502
rthumb 11.478 -64.3432
lclavicle -6.01324e-015 -1.98785e-014
lhumerus -47.7392 18.5445 71.8167
lradius 15.5016
lwrist -29.7243
lhand -8.58987 -16.4388
lfingers 7.12502
lthumb 17.3412 12.8076
rfemur -16.516 -9.5869 24.8129
rtibia 28.2513
rfoot -29.1531 12.4981
rtoes 1.44461
lfemur -49.3523 4.38849 -21.8355
ltibia 31.3324
lfoot -9.7225 9.30179
ltoes -6.06467
7
root -0.446711 16.3418 -43.7644 18.0074 -3.66658 -0.561721
lowerback -16.2423 1.75507 0.6015
upperback -4.52368 2.1326 1.49359
thorax 4.24187 1.05567 1.64993
lowerneck -1.61074 -1.03946 0.66131
upperneck 7.60001 -1.09673 -4.56306
head 2.66752 -0.665793 -1.61401
rclavicle 3.13707e-014 1.82882e-014
rhumerus -20.8567 4.29749 -83.987
rradius 46.3787
rwrist -13.0723
rhand -14.753 -34.82
rfingers 7.12502
rthumb 11.403 -64.4899
lclavicle 3.13707e-014 1.82882e-014
lhumerus -51.2058 13.3937 74.6946
lradius 18.3085
lwrist -24.2024
lhand -8.64807 -16.1626
lfingers 7.12502
lthumb 17.2852 13.0887
rfemur -15.1837 -9.64075 24.4034
rtibia 27.4022
rfoot -28.9911 13.4751
rtoes 1.60932
lfemur -48.9604 4.49457 -21.5811
ltibia 27.8908
lfoot -9.54923 9.50847
ltoes -6.70834
8
root -0.444266 16.3251 -43.5586 18.1173 -4.05109 -0.766476
lowerback -14.8854 1.81122 0.574254
upperback -5.02065 2.23974 1.55829
thorax 2.98554 1.11739 1.69009
lowerneck -2.77247 -0.941661 0.601884
upperneck 8.36091 -0.926189 -4.5786
head 3.14874 -0.605651 -1.63191
rclavicle -2.69602e-015 -2.38542e-015
rhumerus -20.5546 5.53684 -84.038
rradius 47.4856
rwrist -13.7638
rhand -14.8481 -35.6159
rfingers 7.12502
rthumb 11.3112 -65.2908
lclavicle -2.69602e-015 -2.38542e-015
lhumerus -50.8502 15.706 72.8191
lradius 16.4406
lwrist -26.9392
lhand -9.17442 -16.5287
lfingers 7.12502
lthumb 16.7785 12.7664
rfemur -14.0468 -9.78177 24.3369
rtibia 26.4732
rfoot -28.8023 13.9871
rtoes 0.77992
lfemur -48.8641 4.40361 -21.1331
ltibia 24.6596
lfoot -9.36006 9.53305
ltoes -7.09752
